<?xml version="1.0" encoding="UTF-8"?>
<svg viewBox="0 0 708.66144 463.83322" xmlns="http://www.w3.org/2000/svg">
 <g transform="matrix(1.527 1.3136 -1.3136 1.527 312.9 -687.02)">
  <path d="m304.08 189.04c-5.9908 21.067 18.095 30.531 33.738 35.589 3.9094 7.356-15.594-4.1694-19.985-5.054-11.829-2.6674-24.485-21.553-13.753-30.535z"/>
  <path d="m303.91 188.47c16.37 6.5756 34.409 0.07373 50.927 1.3257 8.8216 12.783-9.6514-3.2324-16.567 2.2834-8.4026 0.5114-31.329 5.2417-34.36-3.6091z"/>
  <path d="m358.26 196.02c7.0697-12.898 24.044-12.321 35.404-16.94 3.5421-1.9011 21.486-11.267 9.5636-4.5436-4.9405 4.1305-20.569 11.009-30.936 11.366-3.8788-2.1637-7.9921 9.0283-14.032 10.118z"/>
  <path d="m268.75 384.02c1.5994 17.914 31.131 23.558 27.641 39.831-14.274 10.478-33.042-3.6885-44.311-13.238-7.9422-5.7911-5.3485-11.411 2.3051-2.8482 8.6403 10.997 31.667 19.591 39.116 17.697 3.135-16.155-25.416-21.487-27.765-38.525-0.42734-1.8414 1.9526-2.2953 3.0133-2.9173z"/>
  <path d="m270.11 422.64c0.86101 24.635 12.328 49.56 31.611 65.144 13.81 4.186-4.3092-22.201-4.6169-29.81 0.63506-9.8897-9.148-22.129-1.9058-30.29 2.4074 16.671 4.7185 33.952 13.465 48.66 8.1596 15.317-12.459 20.026-17.786 6.1387-12.032-13.789-20.152-30.671-23.354-48.65-0.96745-3.5516-2.6497-10.118 2.5864-11.193z"/>
  <path d="m173.82 435.72c6.6682-2.1157 21.242-13.061 33.174-16.985 8.7388-1.2861 19.599-5.9575 24.553-8.818-7.7432 6.9611-23.283 9.2268-35.612 14.094-5.5564 4.9425-24.644 13.965-22.116 11.709z"/>
  <path d="m171.34 437.37c-7.9665-17.974 10.114-34.367 26.711-37.141 30.783-11.51 61.393-27.718 82.606-53.41 5.8329-9.6526 14.936-23.501 19.768-30.088-2.6517 5.841 5.6371-24.258 2.7558-6.8308-0.32871 2.5463-3.7081 12.505-1.3588 4.491-4.6829 13.72-15.372 24.324-22.165 36.971-17.423 22.159-42.992 36.086-68.01 47.958-14.202 5.84-32.209 8.821-40.616 23.112-0.12463-7.8168 3.9698 13.821 0.30864 14.937z"/>
  <path d="m176.39 437.21c16.93 5.0415 28.394-18.453 46.591-10.707 13.702 2.6733 29.037-2.5713 40.899-2.9081-11.522 11.272-29.911 7.2456-44.531 7.5228-16.873-6.0722-29.281 15.877-43.85 10.812-1.0323-1.5154 0.10014-3.4378 0.89088-4.7199z"/>
  <path d="m358.49 221.2c15.327-11.112 34.181-18.818 45.583-34.432 2.9971-4.9548 1.162-3.2613 4.1175-11.571 3.6438-0.33864-7.3931 25.856-20.076 30.983-7.7419 1.0225-26.292 23.348-29.624 15.019z"/>
  <path d="m305.75 301.68c14.476 1.6639 22.159-17.252 27.604-25.207-4.0495 10.143 5.2312-15.291 1.2081-3.4873 4.2816-14.495 7.1093-29.31 7.9464-43.918 3.6849 12.036-2.1565 22.174-4.2921 32.19 1.3377 0.38534-4.9124 16.772-3.2608 13.007-4.6732 13.067-13.396 28.764-27.441 32.653-3.3698 0.66049-3.8021-3.4369-1.7646-5.2378z"/>
  <path d="m294.51 410.15c12.667-6.3948 29.352-14.6 33.188-27.142 3.8276-9.9977 14.225-20.247 14.274-23.751 5.3155-14.244 20.568-24.169 18.798-40.77-1.8141-23.638-3.2729-47.479-3.6166-71.063 1.1646-8.142 5.3825-22.325 8.6226-22.437-6.1622 9.7959-6.9216 15.657-5.8899 30.716-0.78983 22.177 3.6339 44.226 2.5918 66.352-3.3167 13.734-11.273 25.391-19.101 36.973-4.8014 13.102-15.511 22.559-20.456 35.45-5.344 8.8105-23.8 19.521-29.143 18.582l0.73068-2.9109 1e-5 -1e-5z"/>
  <path d="m232.15 398.85c22.801-10.834-5.9346 14.459 0 0z"/>
 </g>
</svg>
